<svg xmlns="http://www.w3.org/2000/svg" xmlns:xlink="http://www.w3.org/1999/xlink" width="20px" height="24px" viewBox="0 0 20 24" version="1.1">
<path style="fill:none;stroke-width:2;stroke-linecap:round;stroke-linejoin:round;stroke:rgb(15.686275%,16.470588%,20.784314%);stroke-opacity:1;stroke-miterlimit:10;" d="M 11.401758 6.401177 C 11.401758 10.701538 6.400391 14.5 6.400391 14.5 C 6.400391 14.5 1.404687 10.701538 1.404687 6.401177 C 1.404687 3.697767 3.602344 1.50196 6.400391 1.50196 C 9.204102 1.50196 11.401758 3.697767 11.401758 6.401177 Z M 11.401758 6.401177 " transform="matrix(0.689655,0,0,0.684899,0,2.068966)"/>
<path style="fill:none;stroke-width:2;stroke-linecap:round;stroke-linejoin:round;stroke:rgb(15.686275%,16.470588%,20.784314%);stroke-opacity:1;stroke-miterlimit:10;" d="M 6.400391 7.399272 C 6.955469 7.399272 7.40293 6.954407 7.40293 6.401177 C 7.40293 5.847948 6.955469 5.39738 6.400391 5.39738 C 5.850977 5.39738 5.403516 5.847948 5.403516 6.401177 C 5.403516 6.954407 5.850977 7.399272 6.400391 7.399272 Z M 6.400391 7.399272 " transform="matrix(0.689655,0,0,0.684899,0,2.068966)"/>
<path style="fill:none;stroke-width:2;stroke-linecap:round;stroke-linejoin:round;stroke:rgb(15.686275%,16.470588%,20.784314%);stroke-opacity:1;stroke-miterlimit:10;" d="M 27.402734 19.399217 C 27.402734 23.699578 22.401367 27.49804 22.401367 27.49804 C 22.401367 27.49804 17.4 23.699578 17.4 19.399217 C 17.4 16.701511 19.60332 14.5 22.401367 14.5 C 25.205078 14.5 27.402734 16.701511 27.402734 19.399217 Z M 27.402734 19.399217 " transform="matrix(0.689655,0,0,0.684899,0,2.068966)"/>
<path style="fill:none;stroke-width:2;stroke-linecap:round;stroke-linejoin:round;stroke:rgb(15.686275%,16.470588%,20.784314%);stroke-opacity:1;stroke-miterlimit:10;" d="M 22.401367 20.397312 C 22.956445 20.397312 23.403906 19.952447 23.403906 19.399217 C 23.403906 18.845988 22.956445 18.401123 22.401367 18.401123 C 21.851953 18.401123 21.404492 18.845988 21.404492 19.399217 C 21.404492 19.952447 21.851953 20.397312 22.401367 20.397312 Z M 22.401367 20.397312 " transform="matrix(0.689655,0,0,0.684899,0,2.068966)"/>
<path style="fill:none;stroke-width:2;stroke-linecap:round;stroke-linejoin:round;stroke:rgb(15.686275%,16.470588%,20.784314%);stroke-opacity:1;stroke-miterlimit:10;" d="M 10.801367 4.102709 C 11.905859 3.697767 13.100977 3.498149 14.403711 3.498149 C 19.405078 3.498149 23.704102 6.897373 25.001172 11.500014 " transform="matrix(0.689655,0,0,0.684899,0,2.068966)"/>
<path style="fill:none;stroke-width:2;stroke-linecap:round;stroke-linejoin:round;stroke:rgb(15.686275%,16.470588%,20.784314%);stroke-opacity:1;stroke-miterlimit:10;" d="M 19.303125 24.298435 C 17.802148 25.102614 16.204883 25.501851 14.403711 25.501851 C 9.402344 25.501851 5.10332 22.102627 3.800586 17.499986 " transform="matrix(0.689655,0,0,0.684899,0,2.068966)"/>
</svg>
